<svg width="1000" height="1000" viewBox="0 0 1000 1000" fill="none" xmlns="http://www.w3.org/2000/svg">
<path d="M132.304 729.953L88.0984 834.203C80.4261 852.301 83.9396 874.018 98.7106 888.783C108.426 898.495 121.154 903.333 133.881 903.333C146.609 903.333 159.336 898.495 169.052 888.783L211.07 846.782L369.679 688.202C377.028 680.855 371.83 668.348 361.433 668.348H271.301C270.763 668.348 270.226 668.277 269.652 668.277C174.716 668.277 97.7067 590.187 99.4993 494.896C101.256 401.755 179.305 328.073 272.484 328.073H464.829C467.913 328.073 470.888 326.855 473.075 324.669L549.296 248.479C556.646 241.132 551.447 228.625 541.05 228.625H273.381C123.735 228.625 -1.31616 351.009 0.010376 500.594C0.870789 598.107 53.7882 683.364 132.268 730.024L132.304 729.953ZM727.48 668.312C820.659 668.312 898.708 594.631 900.465 501.49C902.222 408.349 825.248 328.109 730.312 328.109C729.738 328.109 729.129 328.037 728.555 328.037H638.496C628.134 328.037 622.936 315.494 630.25 308.184L796.997 141.504H796.961L829.801 108.606C848.551 89.863 879.061 87.8561 898.923 105.452C915.594 120.181 919.861 143.153 911.794 162.147L867.589 266.362C946.14 312.986 999.093 398.243 999.99 495.756C1001.32 645.341 876.265 767.761 726.619 767.761H458.914C448.553 767.761 443.354 755.218 450.668 747.907L526.889 671.717C529.076 669.531 532.052 668.312 535.135 668.312H727.516H727.48ZM678.829 409.961C726.404 409.961 764.981 448.522 764.981 496.078C764.981 543.635 726.404 582.195 678.829 582.195C631.254 582.195 592.677 543.635 592.677 496.078C592.677 448.522 631.254 409.961 678.829 409.961ZM326.764 409.926C374.339 409.926 412.916 448.487 412.916 496.043C412.916 543.599 374.339 582.16 326.764 582.16C279.189 582.16 240.612 543.599 240.612 496.043C240.612 448.487 279.189 409.926 326.764 409.926Z" fill="url(#paint0_linear_149_1670)"/>
<defs>
<linearGradient id="paint0_linear_149_1670" x1="999.99" y1="498.336" x2="0.0104036" y2="498.336" gradientUnits="userSpaceOnUse">
<stop stop-color="#984AD7"/>
<stop offset="0.49" stop-color="#465CE0"/>
<stop offset="1" stop-color="#0497DC"/>
</linearGradient>
</defs>
</svg>
